<?xml version="1.0" standalone="no"?><!DOCTYPE svg PUBLIC "-//W3C//DTD SVG 1.1//EN" "http://www.w3.org/Graphics/SVG/1.1/DTD/svg11.dtd"><svg t="1649581313495" class="icon" viewBox="0 0 1024 1024" version="1.1" xmlns="http://www.w3.org/2000/svg" p-id="5250" width="128" height="128" xmlns:xlink="http://www.w3.org/1999/xlink"><defs><style type="text/css">@font-face { font-family: feedback-iconfont; src: url("//at.alicdn.com/t/font_1031158_u69w8yhxdu.woff2?t=1630033759944") format("woff2"), url("//at.alicdn.com/t/font_1031158_u69w8yhxdu.woff?t=1630033759944") format("woff"), url("//at.alicdn.com/t/font_1031158_u69w8yhxdu.ttf?t=1630033759944") format("truetype"); }
</style></defs><path d="M186.24 0h651.52Q1024 0 1024 186.24v651.52Q1024 1024 837.76 1024H186.24Q0 1024 0 837.76V186.24Q0 0 186.24 0z" fill="#FF7F65" p-id="5251"></path><path d="M524.8 213.44H512A298.56 298.56 0 0 0 213.44 512v12.8A298.24 298.24 0 0 0 512 810.56h12.8a298.24 298.24 0 0 0 285.76-286.08V512a298.24 298.24 0 0 0-285.76-298.56z m-8 557.44c-35.52 0-69.12-37.12-90.88-96l2.88-3.84a574.08 574.08 0 0 0 176.64-1.92l4.8 5.76c-22.72 59.2-54.4 94.4-87.36 96z m4.48-518.08c33.92 2.88 66.56 39.68 89.92 101.44a57.28 57.28 0 0 0-10.56 10.88A549.12 549.12 0 0 0 512 358.4a526.4 526.4 0 0 0-80.96 5.76l-7.04-8.96c23.04-64 57.28-101.44 92.48-102.08zM401.28 448a53.12 53.12 0 0 0 40.32-46.08 499.2 499.2 0 0 1 70.4-5.12 459.84 459.84 0 0 1 80 6.08l3.52 12.8-187.2 169.92-6.4-1.92A513.92 513.92 0 0 1 396.8 512a481.92 481.92 0 0 1 4.48-64z m212.16 4.16l9.92-9.28a64 64 0 0 0 13.12 4.48 484.8 484.8 0 0 1 3.52 62.08 657.28 657.28 0 0 1-6.4 73.92 51.84 51.84 0 0 0-40.64 47.68 489.92 489.92 0 0 1-81.6 6.08 468.8 468.8 0 0 1-69.12-4.8 56.32 56.32 0 0 0-4.8-19.84z m-268.8-25.28a49.6 49.6 0 0 0 18.24 16.32A582.08 582.08 0 0 0 358.4 512a554.88 554.88 0 0 0 5.44 77.44 56.96 56.96 0 0 0-20.8 20.16C288 585.28 256 555.2 253.12 523.2v-7.68c0.96-33.92 34.88-65.92 91.52-88.64zM688 604.8a55.04 55.04 0 0 0-16.64-15.36 554.88 554.88 0 0 0 5.44-77.44 611.84 611.84 0 0 0-4.8-70.4 52.8 52.8 0 0 0 14.08-12.48c51.52 22.08 83.84 54.4 84.48 85.12v8.32c-2.56 31.04-31.68 59.84-82.56 82.24z m9.92-214.4a54.4 54.4 0 0 0-48-48.64 335.68 335.68 0 0 0-34.24-67.84 268.16 268.16 0 0 1 139.2 147.84 266.24 266.24 0 0 0-56.96-31.36zM422.4 268.48a281.28 281.28 0 0 0-38.4 75.2 54.4 54.4 0 0 0-50.24 44.8 277.44 277.44 0 0 0-65.92 34.56 267.84 267.84 0 0 1 154.56-154.56z m-85.12 378.56a53.12 53.12 0 0 0 52.16 40 302.72 302.72 0 0 0 36.16 67.52 256 256 0 0 1-150.4-137.92 256 256 0 0 0 62.08 30.4z m279.04 102.08a248.96 248.96 0 0 0 29.76-59.84 54.08 54.08 0 0 0 50.24-45.12 247.68 247.68 0 0 0 51.84-27.52 256 256 0 0 1-131.84 132.48z" fill="#FFFFFF" p-id="5252"></path><path d="M386.56 394.88m-32 0a32 32 0 1 0 64 0 32 32 0 1 0-64 0Z" fill="#FF7F65" p-id="5253"></path><path d="M642.88 394.88m-32 0a32 32 0 1 0 64 0 32 32 0 1 0-64 0Z" fill="#FF7F65" p-id="5254"></path><path d="M645.76 637.12m-32 0a32 32 0 1 0 64 0 32 32 0 1 0-64 0Z" fill="#FF7F65" p-id="5255"></path><path d="M386.56 635.84m-32 0a32 32 0 1 0 64 0 32 32 0 1 0-64 0Z" fill="#FF7F65" p-id="5256"></path></svg>