<?xml version="1.0" standalone="no"?><!DOCTYPE svg PUBLIC "-//W3C//DTD SVG 1.1//EN" "http://www.w3.org/Graphics/SVG/1.1/DTD/svg11.dtd"><svg t="1675751720696" class="icon" viewBox="0 0 1024 1024" version="1.1" xmlns="http://www.w3.org/2000/svg" p-id="15269" width="128" height="128" xmlns:xlink="http://www.w3.org/1999/xlink"><path d="M592.4864 195.0208H423.68c-28.1088 0-50.944-22.784-50.944-50.944 0-28.1088 22.784-50.944 50.944-50.944h168.8064c28.1088 0 50.944 22.784 50.944 50.944-0.0512 28.16-22.8352 50.944-50.944 50.944z" fill="#F67271" p-id="15270"></path><path d="M785.1008 150.2208h-83.3536v10.0352c0 45.4656-36.864 82.3808-82.3808 82.3808H403.712c-45.4656 0-82.3808-36.864-82.3808-82.3808v-10.0352H240.5376c-55.552 0-100.608 45.056-100.608 100.608v578.4576c0 55.552 45.056 100.608 100.608 100.608h544.5632c55.552 0 100.608-45.056 100.608-100.608V250.8288c0-55.552-45.056-100.608-100.608-100.608z m-76.7488 583.7312H317.2864c-14.1312 0-25.6-11.4688-25.6-25.6s11.4688-25.6 25.6-25.6h391.0656c14.1312 0 25.6 11.4688 25.6 25.6s-11.4688 25.6-25.6 25.6z m0-153.3952H317.2864c-14.1312 0-25.6-11.4688-25.6-25.6s11.4688-25.6 25.6-25.6h391.0656c14.1312 0 25.6 11.4688 25.6 25.6s-11.4688 25.6-25.6 25.6z m0-153.4464H317.2864c-14.1312 0-25.6-11.4688-25.6-25.6s11.4688-25.6 25.6-25.6h391.0656c14.1312 0 25.6 11.4688 25.6 25.6s-11.4688 25.6-25.6 25.6z" fill="#F5504E" p-id="15271"></path><path d="M885.7088 250.8288c0-55.552-45.056-100.608-100.608-100.608h-83.3536v10.0352c0 45.4656-36.864 82.3808-82.3808 82.3808H403.712c-45.4656 0-82.3808-36.864-82.3808-82.3808v-10.0352H240.5376c-55.552 0-100.608 45.056-100.608 100.608v521.728c83.3536 61.44 186.6752 97.1264 298.1888 95.5904 202.5984-2.816 374.8352-127.8976 447.5904-303.9744v-313.344z m-177.3568 483.1232H317.2864c-14.1312 0-25.6-11.4688-25.6-25.6s11.4688-25.6 25.6-25.6h391.0656c14.1312 0 25.6 11.4688 25.6 25.6s-11.4688 25.6-25.6 25.6z m0-153.3952H317.2864c-14.1312 0-25.6-11.4688-25.6-25.6s11.4688-25.6 25.6-25.6h391.0656c14.1312 0 25.6 11.4688 25.6 25.6s-11.4688 25.6-25.6 25.6z m0-153.4464H317.2864c-14.1312 0-25.6-11.4688-25.6-25.6s11.4688-25.6 25.6-25.6h391.0656c14.1312 0 25.6 11.4688 25.6 25.6s-11.4688 25.6-25.6 25.6z" fill="#FF5A5A" p-id="15272"></path><path d="M835.9424 191.3344c-0.1536-9.3696-0.5632-18.688-1.1776-27.904a100.0448 100.0448 0 0 0-49.664-13.2096h-83.3536v10.0352c0 45.4656-36.864 82.3808-82.3808 82.3808H403.712c-45.4656 0-82.3808-36.864-82.3808-82.3808v-10.0352H240.5376c-55.552 0-100.608 45.056-100.608 100.608v394.3936a486.89152 486.89152 0 0 0 162.048 42.6496c4.3008-3.2256 9.5232-5.1712 15.3088-5.1712h110.1312c84.7872-14.3872 162.048-50.432 225.9968-102.1952H317.2864c-14.1312 0-25.6-11.4688-25.6-25.6s11.4688-25.6 25.6-25.6h390.4512c81.2032-89.0368 130.048-207.9232 128.2048-337.9712z m-127.5904 235.776H317.2864c-14.1312 0-25.6-11.4688-25.6-25.6s11.4688-25.6 25.6-25.6h391.0656c14.1312 0 25.6 11.4688 25.6 25.6s-11.4688 25.6-25.6 25.6z" fill="#F66A68" p-id="15273"></path><path d="M244.3264 522.9056c106.7008-1.4848 205.0048-36.9152 284.7744-95.7952H317.2864c-14.1312 0-25.6-11.4688-25.6-25.6s11.4688-25.6 25.6-25.6h270.7456c60.5696-61.696 105.0112-139.2128 126.464-225.6896h-12.7488v10.0352c0 45.4656-36.864 82.3808-82.3808 82.3808H403.712c-45.4656 0-82.3808-36.864-82.3808-82.3808v-10.0352H240.5376c-55.552 0-100.608 45.056-100.608 100.608v262.4512a494.2848 494.2848 0 0 0 104.3968 9.6256z" fill="#F67271" p-id="15274"></path><path d="M403.712 242.688c-45.4656 0-82.3808-36.864-82.3808-82.3808v-10.0352H240.5376c-55.552 0-100.608 45.056-100.608 100.608v98.5088c8.7552 0.4096 17.5104 0.5632 26.368 0.4096 108.6976-1.536 207.8208-41.6256 284.5696-107.1104h-47.1552zM565.3504 93.184H423.68c-28.1088 0-50.944 22.784-50.944 50.944s22.784 50.944 50.944 50.944h75.1616a450.02752 450.02752 0 0 0 66.5088-101.888z" fill="#F67B7A" p-id="15275"></path></svg>