<?xml version="1.0" standalone="no"?><!DOCTYPE svg PUBLIC "-//W3C//DTD SVG 1.1//EN" "http://www.w3.org/Graphics/SVG/1.1/DTD/svg11.dtd"><svg t="1675751776541" class="icon" viewBox="0 0 1024 1024" version="1.1" xmlns="http://www.w3.org/2000/svg" p-id="16889" width="128" height="128" xmlns:xlink="http://www.w3.org/1999/xlink"><path d="M370.218667 149.333333h283.562666a44.224 44.224 0 0 1 39.552 64l-8.405333 16.832A85.333333 85.333333 0 0 1 608.597333 277.333333h-193.194666a85.333333 85.333333 0 0 1-76.330667-47.168L330.666667 213.333333a44.224 44.224 0 0 1 39.552-64z" fill="#FFAD00" p-id="16890"></path><path d="M321.664 300.16c58.965333-29.44 122.538667-44.16 190.72-44.16 70.826667 0 136.704 15.893333 197.589333 47.658667a213.333333 213.333333 0 0 1 88.32 86.4c21.013333 38.293333 35.626667 86.101333 43.861334 143.466666 4.970667 34.666667 10.090667 69.482667 15.381333 104.405334a213.333333 213.333333 0 0 1-173.717333 241.984c-60.501333 10.730667-117.632 16.085333-171.434667 16.085333-54.656 0-112.768-5.546667-174.336-16.597333a213.333333 213.333333 0 0 1-173.418667-240.512c5.376-37.098667 10.453333-72.213333 15.189334-105.386667 9.088-63.466667 29.866667-118.4 62.293333-164.757333a213.333333 213.333333 0 0 1 79.573333-68.608z" fill="#FF7109" p-id="16891"></path><path d="M560.298667 420.693333a21.333333 21.333333 0 0 1 6.848 11.84l14.293333 71.658667a21.333333 21.333333 0 0 0 12.48 15.424l67.114667 28.864a21.333333 21.333333 0 0 1 2.005333 38.208l-63.722667 35.712a21.333333 21.333333 0 0 0-10.816 16.64l-6.72 72.768a21.333333 21.333333 0 0 1-35.712 13.717333l-53.674666-49.578666a21.333333 21.333333 0 0 0-19.178667-5.12l-71.253333 16.085333a21.333333 21.333333 0 0 1-24.085334-29.738667l30.570667-66.346666a21.333333 21.333333 0 0 0-1.045333-19.84l-37.333334-62.805334a21.333333 21.333333 0 0 1 20.842667-32.085333l72.554667 8.576a21.333333 21.333333 0 0 0 18.538666-7.125333l48.192-54.912a21.333333 21.333333 0 0 1 30.101334-1.962667z m-40.234667 113.706667a42.666667 42.666667 0 1 0-22.101333 82.410667 42.666667 42.666667 0 0 0 22.101333-82.410667z" fill="#FFFFFF" fill-opacity=".95" p-id="16892"></path></svg>