<svg t="1631458897405" class="icon" viewBox="0 0 1024 1024" version="1.1" xmlns="http://www.w3.org/2000/svg" p-id="3129" width="200" height="200"><path d="M621.40595 714.104975c3.09997 0 21.692792-15.494851 27.889732-18.593822 12.396881-6.197941 21.693792-12.395881 30.989703-15.494851 65.079375-27.889732 120.85884-9.296911 195.234125 80.573227 46.484554 55.780465 58.879435 102.265018 43.385584 145.650601-12.395881 30.989703-40.286613 55.780465-83.671197 80.572227-3.09997 3.09997-27.890732 18.593822-37.187643 21.692792-105.363989 65.078375-350.181638-83.671197-526.820943-343.982698C94.584007 407.30892 48.100453 131.502568 156.563412 63.326222l15.494851-9.296911 15.494852-9.29691c55.781465-34.088673 89.869137-49.583524 130.15575-43.385584 40.286613 6.197941 77.474256 37.187643 105.364989 92.969108 61.979405 117.75887 49.582524 173.540334-30.989703 226.222828-6.197941 3.09897-27.890732 15.494851-27.890732 18.593821-18.593822 12.395881 12.395881 96.067078 92.969107 207.629007 77.473256 117.76087 142.550632 182.838245 164.243424 167.343394z" p-id="3130"></path></svg>
