<?xml version="1.0" standalone="no"?><!DOCTYPE svg PUBLIC "-//W3C//DTD SVG 1.1//EN" "http://www.w3.org/Graphics/SVG/1.1/DTD/svg11.dtd"><svg t="1649581630419" class="icon" viewBox="0 0 1024 1024" version="1.1" xmlns="http://www.w3.org/2000/svg" p-id="6299" xmlns:xlink="http://www.w3.org/1999/xlink" width="128" height="128"><defs><style type="text/css">@font-face { font-family: feedback-iconfont; src: url("//at.alicdn.com/t/font_1031158_u69w8yhxdu.woff2?t=1630033759944") format("woff2"), url("//at.alicdn.com/t/font_1031158_u69w8yhxdu.woff?t=1630033759944") format("woff"), url("//at.alicdn.com/t/font_1031158_u69w8yhxdu.ttf?t=1630033759944") format("truetype"); }
</style></defs><path d="M186.026667 0h651.946666Q1024 0 1024 186.026667v651.946666Q1024 1024 837.973333 1024H186.026667Q0 1024 0 837.973333V186.026667Q0 0 186.026667 0z" fill="#3689F5" p-id="6300"></path><path d="M524.8 213.333333H512a298.666667 298.666667 0 0 0-298.666667 298.666667v12.8a298.666667 298.666667 0 0 0 298.666667 285.866667h12.8a298.666667 298.666667 0 0 0 285.866667-286.293334V512a298.666667 298.666667 0 0 0-285.866667-298.666667z m-8.106667 557.653334c-35.413333 0-68.693333-37.12-90.88-97.28l2.986667-3.84a570.88 570.88 0 0 0 176.64 0l4.693333 5.973333c-22.613333 56.746667-55.466667 92.16-87.466666 95.146667z m4.693334-517.973334c33.706667 2.56 66.56 39.253333 89.6 101.12a51.626667 51.626667 0 0 0-10.24 11.093334A532.906667 532.906667 0 0 0 512 358.4a588.8 588.8 0 0 0-80.64 5.546667l-7.253333-8.533334c23.466667-63.573333 57.6-101.546667 92.586666-102.4zM401.066667 448a54.186667 54.186667 0 0 0 40.533333-46.08A469.333333 469.333333 0 0 1 512 396.8a490.666667 490.666667 0 0 1 79.786667 5.973333l3.84 12.8-187.306667 170.666667-6.4-2.133333A484.266667 484.266667 0 0 1 396.8 512a543.573333 543.573333 0 0 1 4.266667-64z m213.333333 4.266667l9.813333-9.386667a77.653333 77.653333 0 0 0 12.8 4.693333 462.08 462.08 0 0 1 4.266667 61.866667 698.453333 698.453333 0 0 1-5.973333 74.24 51.2 51.2 0 0 0-42.666667 47.36 474.88 474.88 0 0 1-81.493333 6.4 438.186667 438.186667 0 0 1-69.12-5.12 57.173333 57.173333 0 0 0-4.693334-20.053333zM344.746667 426.666667a46.08 46.08 0 0 0 18.346666 16.64A484.693333 484.693333 0 0 0 358.4 512a506.026667 506.026667 0 0 0 5.546667 77.226667 58.88 58.88 0 0 0-20.906667 20.053333c-55.466667-22.613333-85.333333-52.906667-90.026667-85.333333v-7.68c2.986667-34.56 34.133333-66.56 91.733334-89.6z m341.333333 177.92a52.48 52.48 0 0 0-17.066667-14.933334 515.84 515.84 0 0 0 7.68-77.653333 581.546667 581.546667 0 0 0-4.266666-70.4 57.173333 57.173333 0 0 0 14.08-12.8c51.626667 22.186667 85.333333 54.613333 85.333333 85.333333v8.533334c-3.84 32-32.853333 59.733333-83.626667 81.92z m9.813333-213.333334A55.04 55.04 0 0 0 649.813333 341.333333a347.306667 347.306667 0 0 0-34.133333-67.84 267.946667 267.946667 0 0 1 139.093333 147.626667 273.066667 273.066667 0 0 0-56.746666-30.72zM422.4 268.8A288 288 0 0 0 384 343.893333a53.333333 53.333333 0 0 0-49.92 42.666667 274.773333 274.773333 0 0 0-66.133333 34.133333A268.373333 268.373333 0 0 1 422.4 268.8z m-85.333333 378.453333a52.48 52.48 0 0 0 52.053333 39.68 301.653333 301.653333 0 0 0 37.546667 67.413334 256 256 0 0 1-150.186667-137.813334 273.493333 273.493333 0 0 0 61.013333 30.72z m279.04 101.546667a269.226667 269.226667 0 0 0 29.866666-59.733333 54.186667 54.186667 0 0 0 49.92-42.666667 256 256 0 0 0 51.626667-27.306667 256 256 0 0 1-130.986667 129.706667z" fill="#FFFFFF" p-id="6301"></path><path d="M386.56 395.093333m-32 0a32 32 0 1 0 64 0 32 32 0 1 0-64 0Z" fill="#3689F5" p-id="6302"></path><path d="M642.986667 395.093333m-32 0a32 32 0 1 0 64 0 32 32 0 1 0-64 0Z" fill="#3689F5" p-id="6303"></path><path d="M645.546667 637.44m-32 0a32 32 0 1 0 64 0 32 32 0 1 0-64 0Z" fill="#3689F5" p-id="6304"></path><path d="M386.56 635.733333m-32 0a32 32 0 1 0 64 0 32 32 0 1 0-64 0Z" fill="#3689F5" p-id="6305"></path></svg>