<?xml version="1.0" standalone="no"?><!DOCTYPE svg PUBLIC "-//W3C//DTD SVG 1.1//EN" "http://www.w3.org/Graphics/SVG/1.1/DTD/svg11.dtd"><svg t="1649581869303" class="icon" viewBox="0 0 1024 1024" version="1.1" xmlns="http://www.w3.org/2000/svg" p-id="7582" xmlns:xlink="http://www.w3.org/1999/xlink" width="128" height="128"><defs><style type="text/css">@font-face { font-family: feedback-iconfont; src: url("//at.alicdn.com/t/font_1031158_u69w8yhxdu.woff2?t=1630033759944") format("woff2"), url("//at.alicdn.com/t/font_1031158_u69w8yhxdu.woff?t=1630033759944") format("woff"), url("//at.alicdn.com/t/font_1031158_u69w8yhxdu.ttf?t=1630033759944") format("truetype"); }
</style></defs><path d="M512 512m-512 0a512 512 0 1 0 1024 0 512 512 0 1 0-1024 0Z" fill="#F4516C" p-id="7583" data-spm-anchor-id="a313x.7781069.0.i24" class="selected"></path><path d="M380.48 283.5584a70.4 70.4 0 0 0 66.0096 85.1456l2.8288 0.0512h125.3632a70.4 70.4 0 0 0 68.8384-85.1968h33.7792a51.2 51.2 0 0 1 51.2 51.2v405.12a51.2 51.2 0 0 1-51.2 51.2H346.7008a51.2 51.2 0 0 1-51.2-51.2V334.7712a51.2 51.2 0 0 1 51.2-51.2h33.7792z m107.0848 239.0272c-7.8464 10.6624-5.12 21.0176 8.1536 31.0784 0.9984 0.7936 2.5088 2.0608 4.5184 3.84l2.6368 2.3424c3.3792 3.0208 7.7184 6.9888 13.056 11.9168 0.64 0.4864 0.704 0.768 0.192 0.8704l-0.4992 0.0384h-84.48c-16.896 0-25.3312 7.4368-25.3312 22.3232 0 14.3616 7.6672 21.888 22.9888 22.5792l2.3552 0.0512h119.4624c0.8064 0 1.1008 0.256 0.8704 0.768l-0.256 0.4352-41.9456 51.584c-10.6624 13.2736-9.5488 25.0368 3.328 35.3024 12.864 10.2528 24.5248 8.64 34.9824-4.8256a3488.128 3488.128 0 0 0 43.6608-56.4864l4.5952-6.1184a917.4272 917.4272 0 0 0 21.44-29.7088c8.6528-12.672 9.7536-22.8352 3.328-30.4768-5.7984-7.0912-14.7968-10.368-27.008-9.856l-2.8672 0.2048-44.352 4.224c-0.9984 0-1.2032-0.4096-0.6016-1.216 10.6624-10.8544 13.7216-18.5984 9.2032-23.2192-4.5312-4.6336-16.3456-13.568-35.456-26.8544-13.6704-9.6512-24.32-9.2544-31.9744 1.2032z m3.0208-79.9488c-6.0288 9.856-21.9264 24.448-47.6672 43.7504-22.9248 17.2928-38.3104 27.5584-46.1568 30.7712-15.6928 6.6432-19.8144 17.792-12.3648 33.4848 7.232 15.488 18.3936 19.3152 33.4848 11.4688 32.576-17.1008 64.3584-42.24 95.3344-75.4176 0.6016-0.8064 1.3056-0.8064 2.112 0 32.384 32.768 61.8368 56.4096 88.384 70.8864 15.0912 8.256 26.3552 4.5312 33.792-11.1616 7.6416-15.2832 7.5904-24.576-0.1536-27.904-7.744-3.328-22.0672-11.52-42.9824-24.576-21.5296-13.4912-38.912-26.4576-52.1984-38.9248-0.96-0.9728-1.344-1.8048-1.152-2.5088l0.256-0.512c2.0096-3.0208-3.6224-8.96-16.896-17.792-13.4784-8.8576-24.7424-6.0416-33.792 8.448z" fill="#FFFFFF" p-id="7584"></path><path d="M417.088 232.9216m47.7952 0l94.2464 0q47.7952 0 47.7952 47.7952l0 5.6704q0 47.7952-47.7952 47.7952l-94.2464 0q-47.7952 0-47.7952-47.7952l0-5.6704q0-47.7952 47.7952-47.7952Z" fill="#FFFFFF" fill-opacity=".702" p-id="7585"></path></svg>