<svg t="1631459649588" class="icon" viewBox="0 0 1024 1024" version="1.1" xmlns="http://www.w3.org/2000/svg" p-id="6765" width="200" height="200"><path d="M512 89.07434667c-231.85180445 0-420.59548445 188.74368-420.59548445 420.59548444S280.14819555 930.26531555 512 930.26531555c231.85180445 0 420.59548445-188.74368 420.59548445-420.59548444 0-231.85180445-188.74368-420.59548445-420.59548445-420.59548444z m171.84995555 601.76611555c-5.82542222 5.82542222-13.39847111 8.73813333-20.97152 8.73813333-8.15559111 0-15.72864-2.91271111-20.97152-8.73813333L491.02848 539.96202667c-5.82542222-5.82542222-8.73813333-13.39847111-8.73813333-20.97152V271.99260445c0-16.31118222 13.39847111-29.70965333 29.70965333-29.70965334s29.70965333 13.39847111 29.70965333 29.70965334v235.34705777L683.84995555 649.47996445c11.65084445 11.06830222 11.65084445 29.70965333 0 41.36049777z" fill="#2C2C2C" p-id="6766"></path></svg>
