<?xml version="1.0" standalone="no"?><!DOCTYPE svg PUBLIC "-//W3C//DTD SVG 1.1//EN" "http://www.w3.org/Graphics/SVG/1.1/DTD/svg11.dtd"><svg t="1627549848012" class="icon" viewBox="0 0 1024 1024" version="1.1" xmlns="http://www.w3.org/2000/svg" p-id="2046" xmlns:xlink="http://www.w3.org/1999/xlink" width="128" height="128"><defs><style type="text/css">@font-face { font-family: feedback-iconfont; src: url("//at.alicdn.com/t/font_1031158_1uhr8ri0pk5.eot?#iefix") format("embedded-opentype"), url("//at.alicdn.com/t/font_1031158_1uhr8ri0pk5.woff2") format("woff2"), url("//at.alicdn.com/t/font_1031158_1uhr8ri0pk5.woff") format("woff"), url("//at.alicdn.com/t/font_1031158_1uhr8ri0pk5.ttf") format("truetype"), url("//at.alicdn.com/t/font_1031158_1uhr8ri0pk5.svg#iconfont") format("svg"); }
</style></defs><path d="M0 0m512 0l0 0q512 0 512 512l0 0q0 512-512 512l0 0q-512 0-512-512l0 0q0-512 512-512Z" fill="#FFFFFF" p-id="2047"></path><path d="M512 640l-104.5632 54.976a25.6 25.6 0 0 1-37.1456-26.9952l19.968-116.4288-84.5824-82.4576a25.6 25.6 0 0 1 14.1824-43.6608l116.9024-16.9856 52.288-105.9328a25.6 25.6 0 0 1 45.9008 0l52.288 105.9328 116.9024 16.9856a25.6 25.6 0 0 1 14.1824 43.6608l-84.5824 82.4576 19.968 116.4288a25.6 25.6 0 0 1-37.1456 26.9952L512 640z" fill="#FCCF0A" p-id="2048"></path></svg>